<svg width="16" height="17" viewBox="0 0 16 17" fill="none" xmlns="http://www.w3.org/2000/svg">
<path d="M8 15.25C5.48438 15.25 3.1875 13.9375 1.92969 11.75C0.671875 9.58984 0.671875 6.9375 1.92969 4.75C3.1875 2.58984 5.48438 1.25 8 1.25C10.4883 1.25 12.7852 2.58984 14.043 4.75C15.3008 6.9375 15.3008 9.58984 14.043 11.75C12.7852 13.9375 10.4883 15.25 8 15.25ZM6.90625 10.4375C6.52344 10.4375 6.25 10.7383 6.25 11.0938C6.25 11.4766 6.52344 11.75 6.90625 11.75H9.09375C9.44922 11.75 9.75 11.4766 9.75 11.0938C9.75 10.7383 9.44922 10.4375 9.09375 10.4375H8.875V8.03125C8.875 7.67578 8.57422 7.375 8.21875 7.375H6.90625C6.52344 7.375 6.25 7.67578 6.25 8.03125C6.25 8.41406 6.52344 8.6875 6.90625 8.6875H7.5625V10.4375H6.90625ZM8 4.75C7.50781 4.75 7.125 5.16016 7.125 5.625C7.125 6.11719 7.50781 6.5 8 6.5C8.46484 6.5 8.875 6.11719 8.875 5.625C8.875 5.16016 8.46484 4.75 8 4.75Z" fill="#23232D"/>
</svg>
