<svg width="16" height="14" viewBox="0 0 16 14" fill="none" xmlns="http://www.w3.org/2000/svg">
    <path d="M11.7812 2.3125L15.625 6.15625C15.8438 6.375 16 6.6875 16 7C16 7.34375 15.8438 7.65625 15.625 7.875L11.7812 11.7188C11.5938 11.9062 11.3125 12 11.0312 12C10.4688 12 10 11.5312 10 10.9688V9H6C5.4375 9 5 8.5625 5 8V6C5 5.46875 5.4375 5 6 5H10V3.0625C10 2.5 10.4688 2 11.0312 2C11.3125 2 11.5938 2.125 11.7812 2.3125ZM5 2H3C2.4375 2 2 2.46875 2 3V11C2 11.5625 2.4375 12 3 12H5C5.53125 12 6 12.4688 6 13C6 13.5625 5.53125 14 5 14H3C1.34375 14 0 12.6562 0 11V3C0 1.34375 1.34375 0 3 0H5C5.53125 0 6 0.46875 6 1C6 1.5625 5.53125 2 5 2Z"
          fill="#3017A1"/>
</svg>
