<svg width="20" height="50" viewBox="0 0 20 50" fill="none" xmlns="http://www.w3.org/2000/svg">
<path d="M2.2 0.903992L6.6 11.504H1L2.8 16.104H14.2L2.2 0.903992Z" fill="#FFDC28"/>
<path d="M17.1002 39.404L15.2002 34.804H12.6002L7.2002 21.704H4.9002L10.3002 34.804H3.7002L15.9002 50.004L11.5002 39.404H17.1002Z" fill="#FFDC28"/>
<path d="M18.6 30.104H11.5L13 33.704H18.6C18.7 33.704 19.1 33.504 19.1 31.904C19 30.304 18.7 30.104 18.6 30.104Z" fill="#23232D"/>
<path d="M19.2998 25.804H9.7998L11.2998 29.404H19.2998C19.3998 29.404 19.7998 29.204 19.7998 27.604C19.6998 26.004 19.3998 25.804 19.2998 25.804Z" fill="#23232D"/>
<path d="M18.5998 20.804C18.6998 20.804 19.0998 20.604 19.0998 19.004C19.0998 17.404 18.7998 17.204 18.5998 17.204H10.7998L12.2998 20.804H18.5998Z" fill="#23232D"/>
<path d="M14 25.104H19.2C19.3 25.104 19.7 24.904 19.7 23.304C19.7 21.704 19.4 21.504 19.2 21.504H12.5L14 25.104Z" fill="#23232D"/>
<path d="M18.6 30.104H11.5L13 33.704H18.6C18.7 33.704 19.1 33.504 19.1 31.904C19 30.304 18.7 30.104 18.6 30.104Z" fill="#23232D"/>
<path d="M19.2998 25.804H9.7998L11.2998 29.404H19.2998C19.3998 29.404 19.7998 29.204 19.7998 27.604C19.6998 26.004 19.3998 25.804 19.2998 25.804Z" fill="#23232D"/>
<path d="M5.4 25.104L3.7 20.804H7.6L9.4 25.104H13.1L9.8 17.204H1.7C1.1 17.204 0.7 17.204 0.4 18.104C0.0999996 19.204 0 21.304 0 25.404C0 29.504 -3.8743e-07 31.604 0.4 32.704C0.7 33.604 1 33.604 1.7 33.604H8.8L5.4 25.104Z" fill="#23232D"/>
</svg>
