<svg width="166" height="50" viewBox="0 0 166 50" fill="none" xmlns="http://www.w3.org/2000/svg">
    <path d="M3.01891 0L7.41891 10.6H1.81891L3.61891 15.2H15.0189L3.01891 0Z" fill="#FFDC28"/>
    <path d="M17.9189 38.5L16.0189 33.9H13.4189L8.01892 20.8H5.71892L11.1189 33.9H4.51892L16.7189 49.1L12.3189 38.5H17.9189Z"
          fill="#FFDC28"/>
    <path d="M19.4189 29.2H12.3189L13.8189 32.8H19.4189C19.5189 32.8 19.9189 32.6 19.9189 31C19.8189 29.4 19.5189 29.2 19.4189 29.2Z"
          fill="#23232D"/>
    <path d="M20.1189 24.9H10.6189L12.1189 28.5H20.1189C20.2189 28.5 20.6189 28.3 20.6189 26.7C20.5189 25.1 20.2189 24.9 20.1189 24.9Z"
          fill="#23232D"/>
    <path d="M19.4189 19.9C19.5189 19.9 19.9189 19.7 19.9189 18.1C19.9189 16.5 19.6189 16.3 19.4189 16.3H11.6189L13.1189 19.9H19.4189Z"
          fill="#23232D"/>
    <path d="M14.8189 24.2H20.0189C20.1189 24.2 20.5189 24 20.5189 22.4C20.5189 20.8 20.2189 20.6 20.0189 20.6H13.3189L14.8189 24.2Z"
          fill="#23232D"/>
    <path d="M19.4189 29.2H12.3189L13.8189 32.8H19.4189C19.5189 32.8 19.9189 32.6 19.9189 31C19.8189 29.4 19.5189 29.2 19.4189 29.2Z"
          fill="#23232D"/>
    <path d="M20.1189 24.9H10.6189L12.1189 28.5H20.1189C20.2189 28.5 20.6189 28.3 20.6189 26.7C20.5189 25.1 20.2189 24.9 20.1189 24.9Z"
          fill="#23232D"/>
    <path d="M6.21891 24.2L4.51891 19.9H8.41891L10.2189 24.2H13.9189L10.6189 16.3H2.51891C1.91891 16.3 1.51891 16.3 1.21891 17.2C0.918908 18.3 0.818909 20.4 0.818909 24.5C0.818909 28.6 0.818908 30.7 1.21891 31.8C1.51891 32.7 1.81891 32.7 2.51891 32.7H9.61891L6.21891 24.2Z"
          fill="#23232D"/>
    <path d="M49.8189 16.35H45.4189L39.0189 32.65H43.5189L44.6189 29.85H50.4189L51.5189 32.65H56.0189L49.8189 16.35ZM45.8189 26.65L47.5189 21.45L49.2189 26.65H45.8189Z"
          fill="#23232D"/>
    <path d="M33.1189 16.35H26.6189V32.75H31.0189V27.15H33.2189C36.9189 27.15 39.0189 25.55 39.0189 21.75C39.0189 17.95 36.6189 16.35 33.1189 16.35ZM31.6189 23.95H31.1189V19.95H31.6189C33.2189 19.95 34.6189 19.95 34.6189 21.95C34.6189 23.95 33.1189 23.95 31.6189 23.95Z"
          fill="#23232D"/>
    <path d="M115.719 26.25L120.019 26.35V22.75H115.719V19.95H121.619V16.35H111.319V32.65H121.619V28.65H115.719V26.25Z"
          fill="#23232D"/>
    <path d="M77.4189 20.75H81.3189L81.4189 32.65H85.7189V20.75H89.7189V16.35H77.4189V20.75Z" fill="#23232D"/>
    <path d="M103.319 22.75H97.3189V16.35H92.9189V32.65H97.3189V26.25H103.319V32.65H107.719V16.35H103.319V22.75Z"
          fill="#23232D"/>
    <path d="M132.219 20.75C134.319 20.75 136.019 22.45 136.019 24.55C136.019 26.65 134.319 28.35 132.219 28.35C130.119 28.35 128.419 26.65 128.419 24.55C128.419 22.45 130.119 20.75 132.219 20.75ZM132.219 16.35C127.719 16.35 124.019 20.05 124.019 24.55C124.019 29.05 127.719 32.75 132.219 32.75C136.719 32.75 140.419 29.05 140.419 24.55C140.419 20.05 136.719 16.35 132.219 16.35Z"
          fill="#23232D"/>
    <path d="M154.719 25.45L147.719 16.35H143.619V32.65H148.019V23.55L154.719 32.65H159.119V16.35H154.819L154.719 25.45Z"
          fill="#23232D"/>
    <path d="M69.8189 25.45L62.7189 16.35H58.6189V32.65H63.0189V23.55L69.7189 32.65H74.2189V16.35H69.8189V25.45Z"
          fill="#23232D"/>
    <path d="M162.319 16.65H161.819V16.35H163.319V16.65H162.819V18.25H162.419V16.65H162.319ZM164.419 18.25L163.919 16.75V18.25H163.519V16.35H164.119L164.619 17.85L165.119 16.35H165.719V18.25H165.319V16.75L164.819 18.25H164.419Z"
          fill="#23232D"/>
</svg>
