<svg width="8" height="7" viewBox="0 0 8 7" fill="none" xmlns="http://www.w3.org/2000/svg">
<path d="M4 0C4.26562 0 4.5 0.234375 4.5 0.5V2.625L6.23438 1.57812C6.46875 1.4375 6.78125 1.51562 6.92188 1.75C7.0625 1.98438 6.98438 2.29688 6.75 2.4375L4.96875 3.5L6.75 4.57812C6.98438 4.71875 7.0625 5.03125 6.92188 5.26562C6.78125 5.5 6.46875 5.57812 6.23438 5.4375L4.5 4.39062V6.5C4.5 6.78125 4.26562 7 4 7C3.71875 7 3.5 6.78125 3.5 6.5V4.39062L1.75 5.4375C1.51562 5.57812 1.20312 5.5 1.0625 5.26562C0.921875 5.03125 1 4.71875 1.23438 4.57812L3.01562 3.5L1.23438 2.4375C1 2.29688 0.921875 1.98438 1.0625 1.75C1.20312 1.51562 1.51562 1.4375 1.75 1.57812L3.5 2.625V0.5C3.5 0.234375 3.71875 0 4 0Z" fill="#D61F1F"/>
</svg>
